# xmcd
#
# Track frame offsets:
#	150
#	12325
#	26152
#	44277
#	58130
#	77377
#	92085
#	107147
#	122892
#	146430
#	158025
#	169012
#	179192
#	193962
#
# Disc length: 2710
#
# Revision: 2
# Processed by: cddbd v1.5.1PL0 Copyright (c) Steve Scherf et al.
# Submitted via: ExactAudioCopy v0.90a11
# Normalized: r0:DSETVAR1,TDELIM( - ),TSWAP
#
DISCID=c10a940e
DTITLE=Various Artist - Hot Hits - A Nashville-Branson Country Christmas
DYEAR=1900
DGENRE=
TTITLE0=Mickey Gilley - Joy To The World
TTITLE1=Waylon Jennings - Away In A Manger
TTITLE2=Bill Anderson - It Came Upon A Midnight Clear
TTITLE3=Crystal Gayle - Halleluja
TTITLE4=Mickey Gilley - O Little Town Of Bethlehem
TTITLE5=Waylon Jennings - O Come, All Ye Faithful
TTITLE6=Louise Mandrell with Pedro Tomas - Silent Night
TTITLE7=Crystal Gayle - What Child Is This?
TTITLE8=Larry Gatlin - O Holy Night
TTITLE9=Merle Haggard - If We Make It Through December
TTITLE10=Porter Wagoner - Jingle Bells
TTITLE11=Merle Haggard - Santa Claus and Pop Corn
TTITLE12=Louise Mandrell - All I Want For Christmas (Dear Is You)
TTITLE13=Boxcar Willie - Up On The House Top
EXTD=
EXTT0=
EXTT1=
EXTT2=
EXTT3=
EXTT4=
EXTT5=
EXTT6=
EXTT7=
EXTT8=
EXTT9=
EXTT10=
EXTT11=
EXTT12=
EXTT13=
PLAYORDER=
